<svg width="80" height="79" viewBox="0 0 80 79" fill="none" xmlns="http://www.w3.org/2000/svg">
<g clip-path="url(#clip0_11645_130211)">
<path d="M35.538 71.7276L32.9505 74.3142H6.56934V76.6219H33.4288C33.7499 76.6219 34.0491 76.4888 34.2628 76.2653L37.484 73.0452C37.7105 72.8312 37.8457 72.5297 37.8457 72.2063V56.9238H35.538V71.7276Z" fill="#56788B"/>
<path d="M26.9824 55.3555H29.2901V63.23H26.9824V55.3555Z" fill="#56788B"/>
<path d="M26.9817 65.5367C26.9817 64.8993 26.4651 64.3828 25.8279 64.3828H1.95365C1.31642 64.3828 0.799805 64.8993 0.799805 65.5367C0.799805 66.174 1.31642 66.6905 1.95365 66.6905H25.8279C26.4652 66.6905 26.9817 66.1739 26.9817 65.5367Z" fill="#56788B"/>
<path d="M51.0801 55.3555H53.3878V63.2293H51.0801V55.3555Z" fill="#56788B"/>
<path d="M78.4167 64.3828H54.5425C53.9051 64.3828 53.3887 64.8993 53.3887 65.5367C53.3887 66.174 53.9051 66.6905 54.5425 66.6905H78.4167C79.0541 66.6905 79.5706 66.174 79.5706 65.5367C79.5706 64.8993 79.054 64.3828 78.4167 64.3828Z" fill="#56788B"/>
<path d="M44.8311 71.7277V56.9238H42.5234V72.2063C42.5234 72.5276 42.6567 72.8269 42.8804 73.0406L46.1016 76.2606C46.3156 76.4871 46.617 76.622 46.9402 76.622H73.7997V74.3143H47.4187L44.8311 71.7277Z" fill="#56788B"/>
<path d="M6.56905 72.0059H1.95365C1.31642 72.0059 0.799805 72.5223 0.799805 73.1597V77.7725C0.799805 78.4099 1.31642 78.9263 1.95365 78.9263H6.56905C7.20628 78.9263 7.7229 78.4099 7.7229 77.7725V73.1597C7.7229 72.5223 7.20628 72.0059 6.56905 72.0059V72.0059Z" fill="#FF4656"/>
<path d="M78.4138 72.0059H73.7984C73.161 72.0059 72.6445 72.5223 72.6445 73.1597V77.7723C72.6445 78.4097 73.161 78.9262 73.7984 78.9262H78.4138C79.0512 78.9262 79.5676 78.4097 79.5676 77.7723V73.1597C79.5676 72.5223 79.051 72.0059 78.4138 72.0059Z" fill="#FF4656"/>
<path d="M54.5417 62.0781H49.9263C49.2889 62.0781 48.7725 62.5946 48.7725 63.232V67.8446C48.7725 68.482 49.2889 68.9985 49.9263 68.9985H54.5417C55.1791 68.9985 55.6956 68.482 55.6956 67.8446V63.232C55.6956 62.5946 55.1791 62.0781 54.5417 62.0781Z" fill="#00CEC8"/>
<path d="M30.4431 62.0781H25.8277C25.1903 62.0781 24.6738 62.5946 24.6738 63.232V67.8446C24.6738 68.482 25.1903 68.9985 25.8277 68.9985H30.4431C31.0805 68.9985 31.5969 68.482 31.5969 67.8446V63.232C31.5969 62.5946 31.0805 62.0781 30.4431 62.0781Z" fill="#00CEC8"/>
<path d="M79.5636 37.9469C79.5497 42.9346 77.5974 47.6161 74.0666 51.133C71.9651 53.2254 69.4559 54.7561 66.7174 55.6484C66.6943 55.6561 66.6728 55.6623 66.6497 55.67C64.8205 56.2608 62.8928 56.5654 60.9174 56.5654H16.2757C15.3788 56.5654 14.4973 56.4884 13.6404 56.3407C6.91265 55.1931 1.62341 49.7115 0.881867 42.6976C0.0218651 34.5653 5.63572 27.2145 13.5573 25.8053C13.5496 25.5776 13.545 25.3499 13.545 25.1238C13.5711 19.3853 15.5834 13.7853 19.2111 9.34988C22.045 5.88526 25.7696 3.24833 29.9373 1.70986H29.9389C31.1065 1.27909 32.3081 0.932938 33.5342 0.68063C40.0835 -0.668604 46.7666 0.616014 52.3512 4.29756C57.6943 7.82218 61.4189 13.136 62.9112 19.333C72.3436 20.3437 79.5897 28.3561 79.5636 37.9469Z" fill="#99E7FA"/>
<path d="M79.5632 37.9468C79.5494 42.9344 77.597 47.6173 74.0663 51.1341C71.9478 53.2433 69.414 54.7816 66.6493 55.6709C67.817 54.9278 68.9109 54.0447 69.9124 53.0326C73.4432 49.4635 75.3955 44.7098 75.4093 39.6484C75.4355 29.9133 68.1893 21.7797 58.757 20.7537C57.2647 14.4633 53.5401 9.06955 48.197 5.49277C42.7708 1.86061 36.3077 0.525221 29.9385 1.70984C31.1062 1.27907 32.3077 0.932914 33.5339 0.680606C40.0831 -0.668628 46.7662 0.61599 52.3508 4.29892C57.6939 7.82339 61.4185 13.1371 62.9109 19.3337C72.3432 20.3445 79.5894 28.3565 79.5632 37.9468V37.9468Z" fill="#4DD4F7"/>
<path d="M60.7928 26.9942V56.5665H19.5742V26.9942C19.5742 24.6126 20.8958 21.3403 27.1927 19.2772C30.7035 18.128 35.3173 17.4941 40.1835 17.4941C45.0497 17.4941 49.662 18.128 53.1743 19.2772C59.4712 21.3403 60.7928 24.6126 60.7928 26.9942V26.9942Z" fill="#4DD4F7"/>
<path d="M57.7112 44.3203V54.8603C57.7112 59.0773 48.8912 61.2834 40.1788 61.2834C39.665 61.2834 39.1527 61.2757 38.6404 61.2604C30.4573 61.0173 22.6465 58.8296 22.6465 54.8603V44.3203H57.7112Z" fill="#DAE1EA"/>
<path d="M57.7114 44.3203V54.8603C57.7114 59.0773 48.8914 61.2834 40.1791 61.2834C39.6652 61.2834 39.1529 61.2757 38.6406 61.2604C46.8222 61.0173 54.6345 58.8296 54.6345 54.8603V44.3203H57.7114Z" fill="#B9CFDF"/>
<path d="M40.1788 50.7455C49.8617 50.7455 57.7112 47.8696 57.7112 44.322C57.7112 40.7744 49.8617 37.8984 40.1788 37.8984C30.496 37.8984 22.6465 40.7744 22.6465 44.322C22.6465 47.8696 30.496 50.7455 40.1788 50.7455Z" fill="#EEF0F5"/>
<path d="M40.1746 57.0972C40.8119 57.0972 41.3286 56.5805 41.3286 55.9431C41.3286 55.3057 40.8119 54.7891 40.1746 54.7891C39.5372 54.7891 39.0205 55.3057 39.0205 55.9431C39.0205 56.5805 39.5372 57.0972 40.1746 57.0972Z" fill="#90ABBD"/>
<path d="M34.2332 56.7398C34.8705 56.7398 35.3872 56.2231 35.3872 55.5857C35.3872 54.9483 34.8705 54.4316 34.2332 54.4316C33.5958 54.4316 33.0791 54.9483 33.0791 55.5857C33.0791 56.2231 33.5958 56.7398 34.2332 56.7398Z" fill="#FF4656"/>
<path d="M46.0525 56.7398C46.6899 56.7398 47.2065 56.2231 47.2065 55.5857C47.2065 54.9483 46.6899 54.4316 46.0525 54.4316C45.4151 54.4316 44.8984 54.9483 44.8984 55.5857C44.8984 56.2231 45.4151 56.7398 46.0525 56.7398Z" fill="#00CEC8"/>
<path d="M57.7161 26.9941V37.5342C57.7161 41.7511 48.896 43.9573 40.1837 43.9573C39.6699 43.9573 39.1576 43.9496 38.6452 43.9342C30.4622 43.6911 22.6514 41.5034 22.6514 37.5342V26.9941H57.7161Z" fill="#DAE1EA"/>
<path d="M57.7153 26.9941V37.5342C57.7153 41.7511 48.8953 43.9573 40.183 43.9573C39.6691 43.9573 39.1568 43.9496 38.6445 43.9342C46.8261 43.6911 54.6384 41.5034 54.6384 37.5342V26.9941H57.7153Z" fill="#B9CFDF"/>
<path d="M40.1837 33.4174C49.8666 33.4174 57.7161 30.5415 57.7161 26.9939C57.7161 23.4462 49.8666 20.5703 40.1837 20.5703C30.5009 20.5703 22.6514 23.4462 22.6514 26.9939C22.6514 30.5415 30.5009 33.4174 40.1837 33.4174Z" fill="#EEF0F5"/>
<path d="M40.1794 39.7691C40.8168 39.7691 41.3335 39.2524 41.3335 38.615C41.3335 37.9776 40.8168 37.4609 40.1794 37.4609C39.5421 37.4609 39.0254 37.9776 39.0254 38.615C39.0254 39.2524 39.5421 39.7691 40.1794 39.7691Z" fill="#90ABBD"/>
<path d="M34.238 39.4136C34.8754 39.4136 35.3921 38.8969 35.3921 38.2595C35.3921 37.6222 34.8754 37.1055 34.238 37.1055C33.6007 37.1055 33.084 37.6222 33.084 38.2595C33.084 38.8969 33.6007 39.4136 34.238 39.4136Z" fill="#FF4656"/>
<path d="M46.0574 39.4136C46.6947 39.4136 47.2114 38.8969 47.2114 38.2595C47.2114 37.6222 46.6947 37.1055 46.0574 37.1055C45.42 37.1055 44.9033 37.6222 44.9033 38.2595C44.9033 38.8969 45.42 39.4136 46.0574 39.4136Z" fill="#00CEC8"/>
</g>
<defs>
<clipPath id="clip0_11645_130211">
<rect width="78.7731" height="78.7731" fill="white" transform="translate(0.794922 0.15625)"/>
</clipPath>
</defs>
</svg>
