<svg width="74" height="74" viewBox="0 0 74 74" fill="none" xmlns="http://www.w3.org/2000/svg">
<path d="M35.4102 1.58984C15.8536 1.58984 0 17.4435 0 37C0 42.8912 1.4404 48.4453 3.98559 53.3323V47.6969C3.98559 47.077 4.49001 46.5726 5.1099 46.5726H26.6257C27.2456 46.5726 27.7499 47.077 27.7499 47.6969V65.3601C27.7499 65.98 27.2456 66.4844 26.6257 66.4844H15.7968C21.412 70.2272 28.1557 72.4102 35.41 72.4102C54.9665 72.4102 70.8202 56.5565 70.8202 37C70.8202 17.4435 54.9667 1.58984 35.4102 1.58984V1.58984Z" fill="#D4F2F6"/>
<path d="M27.3587 61.8867H10.9151L10.3682 62.0312C12.0853 63.7486 13.9773 65.2912 16.0162 66.6285H26.6255C27.3262 66.6285 27.8943 66.0605 27.8943 65.3597V62.0312L27.3587 61.8867Z" fill="#FFE177"/>
<path d="M56.7141 6.58398C50.5478 6.58398 45.1366 9.81339 42.0771 14.6727L46.5289 17.1791C45.2169 19.1695 44.5244 21.4792 44.5244 23.8693C44.5244 30.5909 49.9927 36.0593 56.7143 36.0593C57.1109 36.0593 57.5232 36.0377 57.9422 35.9951C57.768 37.7501 57.4478 39.4729 56.9973 41.1512C66.4129 40.9998 73.9995 33.3211 73.9995 23.8693C73.9995 14.3229 66.2606 6.58398 56.7141 6.58398V6.58398Z" fill="#A6E7F0"/>
<path d="M56.7146 35.9143C50.0729 35.9143 44.6693 30.5107 44.6693 23.8689C44.6693 21.374 45.432 19.054 46.7361 17.1293L36.5254 11.3802C35.8329 10.9904 34.9873 10.9904 34.2948 11.3802L13.7322 22.9578C13.0168 23.3606 12.5742 24.1176 12.5742 24.9386V32.8032C12.5742 33.2549 12.5848 33.705 12.6034 34.1536C13.615 33.7532 14.7156 33.5308 15.8678 33.5308C20.7756 33.5308 24.7685 37.5236 24.7685 42.4315V46.5723H26.6258C27.2457 46.5723 27.75 47.0767 27.75 47.6966V60.2529C28.0892 60.4659 28.4328 60.6738 28.7815 60.8751L34.2736 64.046C34.9769 64.4521 35.8435 64.4521 36.5467 64.046L42.0388 60.8751C51.1869 55.5935 57.1299 46.2259 58.1036 35.8317C57.6476 35.8844 57.1847 35.9143 56.7146 35.9143V35.9143Z" fill="#00F2A6"/>
<path d="M44.6692 23.8692C44.6692 22.7931 44.8132 21.7505 45.0791 20.7571L35.7647 15.5128C35.5445 15.389 35.2757 15.389 35.0556 15.5128L16.8896 25.7409C16.6623 25.8689 16.5215 26.1096 16.5215 26.3706V33.0264C16.5215 33.2042 16.527 33.3812 16.5303 33.5584C21.1296 33.8989 24.7683 37.7471 24.7683 42.4318V46.5726H26.6257C27.2456 46.5726 27.7498 47.077 27.7498 47.6969V55.4556C28.6348 56.1181 29.562 56.735 30.5334 57.2958L35.0487 59.9027C35.2722 60.0318 35.5477 60.0318 35.7713 59.9027L40.2865 57.2958C48.1688 52.7449 53.3259 44.6093 54.1729 35.6424C48.748 34.4721 44.6692 29.6392 44.6692 23.8692V23.8692Z" fill="#0ED290"/>
<path d="M37.3714 54.3855C28.7008 49.3795 23.3595 40.1281 23.3595 30.1161V22.0977L16.8896 25.7404C16.6623 25.8685 16.5215 26.1091 16.5215 26.3701V33.026C16.5215 33.2037 16.527 33.3808 16.5303 33.558C21.1296 33.8985 24.7683 37.7466 24.7683 42.4313V46.5721H26.6257C27.2456 46.5721 27.7498 47.0766 27.7498 47.6965V55.4552C28.6348 56.1177 29.562 56.7346 30.5334 57.2954L35.0487 59.9023C35.2722 60.0313 35.5477 60.0313 35.7713 59.9023L40.2865 57.2954C40.6368 57.093 40.9798 56.8811 41.3193 56.6649L37.3714 54.3855Z" fill="#00C285"/>
<path d="M26.9351 39.6924C26.9351 40.5797 26.2133 41.3015 25.3259 41.3015H26.5457C27.4332 41.3015 28.155 40.5797 28.155 39.6924C28.155 38.8052 27.4332 38.0834 26.5457 38.0834H25.6814C23.5988 38.0834 21.9044 36.389 21.9044 34.3063C21.9044 32.2236 23.5988 30.5293 25.6814 30.5293H24.4616C22.3789 30.5293 20.6846 32.2236 20.6846 34.3063C20.6846 34.5412 20.7073 34.7709 20.7485 34.994C21.9035 35.7547 22.8709 36.7767 23.5672 37.9755C23.8541 38.0455 24.1535 38.0834 24.4616 38.0834H25.3259C26.2133 38.0834 26.9351 38.8053 26.9351 39.6924V39.6924Z" fill="#07B27B"/>
<path d="M31.5187 42.3848C31.5187 41.7861 32.0039 41.3008 32.6027 41.3008H31.3828C30.784 41.3008 30.2988 41.7861 30.2988 42.3848C30.2988 42.9834 30.784 43.4688 31.3828 43.4688H32.6027C32.004 43.4688 31.5187 42.9834 31.5187 42.3848Z" fill="#07B27B"/>
<path d="M33.7575 38.0834H34.6218C35.5092 38.0834 36.231 38.8053 36.231 39.6924C36.231 40.5797 35.5092 41.3015 34.6218 41.3015H35.8416C36.7291 41.3015 37.4509 40.5797 37.4509 39.6924C37.4509 38.8052 36.7291 38.0834 35.8416 38.0834H34.9773C32.8947 38.0834 31.2003 36.389 31.2003 34.3063C31.2003 32.2236 32.8947 30.5293 34.9773 30.5293H33.7575C31.6748 30.5293 29.9805 32.2236 29.9805 34.3063C29.9805 36.389 31.6748 38.0834 33.7575 38.0834Z" fill="#07B27B"/>
<path d="M40.4962 42.3856V31.6133C40.4962 31.2408 40.6841 30.9125 40.9703 30.7173C40.7965 30.5988 40.5865 30.5293 40.3604 30.5293C39.7616 30.5293 39.2764 31.0146 39.2764 31.6133V42.3856C39.2764 42.9843 39.7616 43.4696 40.3604 43.4696H41.5802C40.9815 43.4696 40.4962 42.9843 40.4962 42.3856V42.3856Z" fill="#07B27B"/>
<path d="M26.5466 35.9154H25.6823C24.795 35.9154 24.0732 35.1935 24.0732 34.3063C24.0732 33.4191 24.795 32.6973 25.6823 32.6973H28.922C29.5208 32.6973 30.006 32.2119 30.006 31.6133C30.006 31.0146 29.5208 30.5293 28.922 30.5293H25.6823C23.5996 30.5293 21.9053 32.2236 21.9053 34.3063C21.9053 36.389 23.5996 38.0834 25.6823 38.0834H26.5466C27.434 38.0834 28.1558 38.8053 28.1558 39.6924C28.1558 40.5797 27.434 41.3015 26.5466 41.3015H24.6944C24.7416 41.6718 24.7686 42.0483 24.7686 42.4312V43.4695H26.5466C28.6293 43.4695 30.3238 41.7751 30.3238 39.6924C30.3238 37.6097 28.6293 35.9154 26.5466 35.9154V35.9154Z" fill="white"/>
<path d="M35.8425 43.4695H32.603C32.0042 43.4695 31.519 42.9841 31.519 42.3855C31.519 41.7868 32.0042 41.3015 32.603 41.3015H35.8425C36.7299 41.3015 37.4517 40.5797 37.4517 39.6924C37.4517 38.8052 36.7299 38.0834 35.8425 38.0834H34.9782C32.8955 38.0834 31.2012 36.389 31.2012 34.3063C31.2012 32.2236 32.8955 30.5293 34.9782 30.5293H38.2179C38.8167 30.5293 39.3019 31.0146 39.3019 31.6133C39.3019 32.2119 38.8167 32.6973 38.2179 32.6973H34.9782C34.0909 32.6973 33.3691 33.4191 33.3691 34.3063C33.3691 35.1936 34.0909 35.9154 34.9782 35.9154H35.8425C37.9252 35.9154 39.6197 37.6097 39.6197 39.6924C39.6197 41.7751 37.9252 43.4695 35.8425 43.4695Z" fill="white"/>
<path d="M47.8315 43.4696H41.5811C40.9823 43.4696 40.4971 42.9843 40.4971 42.3856V31.6133C40.4971 31.0146 40.9823 30.5293 41.5811 30.5293C42.1798 30.5293 42.665 31.0146 42.665 31.6133V41.3016H47.8315C48.4302 41.3016 48.9154 41.787 48.9154 42.3856C48.9154 42.9843 48.4302 43.4696 47.8315 43.4696Z" fill="white"/>
<path d="M10.4895 46.5727V42.4319C10.4895 39.4664 12.902 37.0539 15.8675 37.0539C18.833 37.0539 21.2455 39.4664 21.2455 42.4319V46.5727H24.9127V42.4319C24.9127 37.4444 20.8549 33.3867 15.8675 33.3867C10.88 33.3867 6.82227 37.4443 6.82227 42.4319V46.5727H10.4895Z" fill="#0681AF"/>
<path d="M21.2454 42.4327V46.5735H23.37V42.4327C23.37 39.4672 20.9575 37.0547 17.992 37.0547C17.6284 37.0547 17.2732 37.0914 16.9297 37.1605C19.388 37.6551 21.2454 39.8308 21.2454 42.4327V42.4327Z" fill="#017297"/>
<path d="M8.94687 46.5727V42.4319C8.94687 37.8037 12.4411 33.9771 16.9298 33.4494C16.5812 33.4085 16.2268 33.3867 15.8675 33.3867C10.88 33.3867 6.82227 37.4443 6.82227 42.4319V46.5727H8.94687Z" fill="#017297"/>
<path d="M26.6254 46.4277H5.10966C4.40897 46.4277 3.84082 46.9957 3.84082 47.6966V53.0543C5.53834 56.3855 7.74678 59.4126 10.3641 62.0313H27.8943V47.6966C27.8943 46.9959 27.3263 46.4277 26.6254 46.4277Z" fill="#FFC344"/>
<path d="M3.84082 47.6966V53.0543C5.12411 55.5728 6.70052 57.9165 8.52407 60.0423V47.6966C8.52407 46.9959 9.09207 46.4277 9.79291 46.4277H5.10952C4.40883 46.4279 3.84082 46.9959 3.84082 47.6966V47.6966Z" fill="#FEB137"/>
<path d="M18.5591 53.098C18.5591 51.5481 17.2493 50.3043 15.6762 50.4129C14.3753 50.5028 13.3106 51.5385 13.1881 52.8366C13.0873 53.9057 13.6128 54.8607 14.4396 55.3792C14.5644 55.4574 14.6436 55.5911 14.6436 55.7385V58.9051C14.6436 59.3722 15.0222 59.7509 15.4894 59.7509H16.2454C16.7125 59.7509 17.0912 59.3722 17.0912 58.9051V55.7409C17.0912 55.5924 17.1707 55.4574 17.2964 55.3785C18.0547 54.9023 18.5591 54.0592 18.5591 53.098V53.098Z" fill="#3692BC"/>
<path d="M16.0275 58.905V55.7385C16.0275 55.5912 15.9484 55.4575 15.8235 55.3792C14.9965 54.8606 14.4711 53.9057 14.572 52.8366C14.6783 51.7097 15.4949 50.7811 16.5593 50.4966C16.2801 50.4225 15.9834 50.3916 15.6762 50.4128C14.3753 50.5027 13.3106 51.5384 13.1881 52.8366C13.0873 53.9057 13.6128 54.8606 14.4396 55.3792C14.5644 55.4574 14.6436 55.5911 14.6436 55.7385V58.905C14.6436 59.3722 15.0222 59.7508 15.4894 59.7508H16.2454C16.3564 59.7508 16.4622 59.7289 16.5593 59.69C16.2479 59.5653 16.0275 59.2612 16.0275 58.905V58.905Z" fill="#017297"/>
<path d="M56.7143 36.0595C63.4466 36.0595 68.9042 30.6019 68.9042 23.8696C68.9042 17.1373 63.4466 11.6797 56.7143 11.6797C49.982 11.6797 44.5244 17.1373 44.5244 23.8696C44.5244 30.6019 49.982 36.0595 56.7143 36.0595Z" fill="#3692BC"/>
<path d="M52.077 23.8695C52.077 18.4557 55.6075 13.8689 60.4906 12.2789C59.3013 11.8917 58.0329 11.6797 56.7143 11.6797C49.9821 11.6797 44.5244 17.1372 44.5244 23.8696C44.5244 30.6019 49.9821 36.0595 56.7143 36.0595C58.0329 36.0595 59.3013 35.8475 60.4906 35.4603C55.6074 33.87 52.077 29.2832 52.077 23.8695Z" fill="#0681AF"/>
<path d="M55.9392 25.7836L61.4566 20.2663C61.5142 20.2086 61.5771 20.1595 61.6433 20.1176C61.2242 19.8515 60.6627 19.9006 60.2969 20.2663L55.3594 25.2038L55.9392 25.7836Z" fill="#025F80"/>
<path d="M55.1731 28.0831L50.4381 23.348C50.0148 22.9246 50.0148 22.2382 50.4383 21.8151C50.4959 21.7574 50.5588 21.7083 50.6249 21.6663C50.2057 21.4004 49.6442 21.4494 49.2786 21.8151C48.8551 22.2384 48.8551 22.9246 49.2784 23.348L54.0134 28.0831C54.2168 28.2864 54.4924 28.4006 54.78 28.4006C54.9871 28.4006 55.1876 28.3405 55.3599 28.2314C55.2931 28.189 55.2301 28.14 55.1731 28.0831Z" fill="#025F80"/>
<path d="M55.9402 28.4011C55.6527 28.4011 55.3771 28.2869 55.1736 28.0835L50.4386 23.3484C50.0152 22.9251 50.0152 22.2387 50.4387 21.8155C50.8621 21.392 51.5484 21.3922 51.9716 21.8155L55.94 25.7841L61.4573 20.2667C61.881 19.8434 62.5672 19.8434 62.9904 20.2667C63.4137 20.69 63.4137 21.3764 62.9904 21.7996L56.7065 28.0834C56.5033 28.2869 56.2276 28.4011 55.9402 28.4011V28.4011Z" fill="white"/>
</svg>
